<?xml version="1.0" standalone="no"?>
<!DOCTYPE svg PUBLIC "-//W3C//DTD SVG 20010904//EN"
 "http://www.w3.org/TR/2001/REC-SVG-20010904/DTD/svg10.dtd">
<svg version="1.0" xmlns="http://www.w3.org/2000/svg"
 width="1226.000000pt" height="1280.000000pt" viewBox="0 0 1226.000000 1280.000000"
 preserveAspectRatio="xMidYMid meet">
<metadata>
Created by potrace 1.15, written by Peter Selinger 2001-2017
</metadata>
<g transform="translate(0.000000,1280.000000) scale(0.100000,-0.100000)"
fill="#000000" stroke="none">
<path d="M1520 12789 c-27 -11 -86 -64 -101 -91 -8 -15 -1 -22 43 -44 66 -33
85 -50 109 -96 24 -47 35 -99 49 -230 l12 -107 -127 -151 c-114 -134 -131
-150 -159 -150 -56 0 -163 -28 -199 -52 -34 -22 -37 -28 -52 -113 -9 -49 -19
-112 -22 -140 l-5 -50 -147 -105 c-353 -253 -573 -541 -757 -990 -124 -304
-159 -495 -158 -860 0 -432 42 -611 218 -945 132 -248 253 -422 405 -578 172
-178 328 -291 564 -412 64 -33 119 -67 121 -75 3 -8 33 -168 66 -356 l62 -341
-59 -166 c-78 -215 -81 -206 125 -338 l99 -64 13 -100 c24 -193 69 -309 202
-522 l70 -113 -5 -1432 c-3 -788 -10 -1494 -16 -1570 -7 -100 -15 -149 -30
-183 -18 -41 -20 -56 -12 -104 5 -32 7 -343 4 -721 -4 -468 -2 -673 6 -693 9
-22 17 -27 46 -27 43 0 132 -29 237 -77 l78 -36 0 -69 c0 -63 -2 -69 -25 -80
-29 -13 -58 -69 -109 -207 l-35 -94 102 -106 c56 -58 118 -127 136 -154 19
-26 36 -47 37 -47 2 0 58 27 125 60 223 109 276 170 309 357 13 72 13 72 -14
104 -31 36 -96 161 -96 183 0 25 101 126 151 151 26 13 79 32 118 40 l70 16
-5 112 c-2 62 -9 391 -14 732 -6 341 -15 843 -20 1115 -5 272 -12 668 -16 880
l-7 386 38 84 c77 172 233 405 277 414 13 3 92 15 175 26 189 25 311 56 439
109 89 37 117 44 289 66 188 24 202 24 1585 34 767 6 1756 14 2196 18 l802 6
-2 -124 c-1 -97 3 -135 17 -176 10 -29 22 -55 27 -58 5 -3 61 6 125 20 64 14
123 25 130 25 17 0 174 -298 209 -398 68 -192 108 -400 161 -852 20 -168 38
-315 41 -327 4 -21 9 -21 191 -25 214 -4 240 -12 307 -90 64 -75 77 -137 87
-425 7 -238 18 -325 39 -338 5 -3 23 7 40 22 l31 28 -12 220 c-14 273 -7 680
16 823 19 120 53 246 96 348 38 92 195 357 384 649 153 237 200 318 211 370 6
27 5 28 -9 15 -33 -33 -153 -209 -276 -407 -340 -546 -362 -577 -423 -609 -29
-15 -26 -7 62 163 179 342 357 629 459 737 111 118 244 183 450 221 93 17 141
19 141 6 0 -19 -439 -734 -774 -1261 -203 -320 -250 -402 -262 -455 -5 -23 6
-12 51 50 87 120 142 206 427 678 414 684 572 913 661 955 23 11 43 19 45 17
1 -1 -46 -74 -106 -161 -217 -317 -383 -589 -613 -1001 -117 -209 -179 -327
-179 -338 0 -23 106 107 355 435 137 181 158 213 275 441 143 277 180 337 263
426 51 54 153 133 172 133 4 0 -19 -28 -51 -63 -69 -74 -257 -331 -331 -453
-55 -90 -90 -170 -80 -181 12 -11 34 16 46 57 8 28 20 44 37 50 13 5 24 16 24
23 0 8 10 27 23 42 12 16 38 58 57 94 19 36 46 71 59 78 13 6 30 25 37 42 7
17 56 89 108 161 52 71 97 138 101 149 14 46 131 68 400 76 236 6 307 13 285
25 -23 13 -355 29 -1036 50 -777 25 -1109 43 -1143 65 -5 2 -11 14 -14 24 -6
26 -3 26 398 46 787 39 1379 75 1545 96 47 5 96 18 110 27 24 16 -15 17 -720
23 -631 5 -763 8 -865 23 -257 37 -395 92 -451 181 -27 41 -26 262 0 314 l18
34 652 -7 c358 -3 755 -8 881 -10 295 -6 133 7 -300 23 -833 32 -1190 69
-1266 130 -22 18 -22 19 -6 45 36 55 115 74 357 85 159 7 163 8 118 20 -50 14
-98 50 -98 74 0 30 134 283 324 616 214 372 289 516 301 571 4 19 5 33 2 30
-2 -3 -84 -153 -182 -334 -182 -340 -298 -540 -368 -636 -63 -86 -210 -270
-213 -267 -2 2 96 198 218 437 256 503 390 785 386 812 -5 28 -44 -37 -213
-352 -241 -450 -328 -590 -351 -567 -17 16 37 137 258 578 189 375 231 466
237 515 5 32 7 60 6 62 -6 7 -443 -840 -528 -1023 -36 -77 -79 -180 -97 -230
-32 -94 -68 -162 -94 -185 -31 -25 -17 31 48 194 141 351 405 923 530 1146 74
133 119 235 113 253 -8 26 -121 -178 -479 -870 -149 -288 -274 -520 -279 -517
-5 3 -9 16 -9 30 0 73 525 1140 718 1459 30 49 56 93 59 98 10 17 -28 5 -47
-15 -35 -38 -136 -213 -358 -619 -208 -382 -301 -543 -308 -537 -2 2 23 74 55
159 116 311 123 402 29 353 -16 -8 -31 -14 -33 -12 -5 6 152 344 204 438 29
52 100 170 157 261 94 151 121 209 95 209 -29 0 -255 -381 -377 -634 -70 -147
-139 -342 -150 -426 -9 -69 -22 -43 -23 45 -2 149 124 476 326 848 82 152 123
251 108 265 -15 14 -68 -70 -245 -383 -100 -179 -184 -325 -186 -325 -12 0 88
254 160 405 46 99 89 200 95 225 16 68 13 238 -4 297 -23 78 -35 82 -84 26
-23 -26 -58 -73 -78 -105 -19 -33 -38 -56 -42 -53 -3 4 -22 70 -42 148 -40
157 -38 157 -64 -18 -19 -136 -48 -199 -109 -243 -70 -51 -134 -62 -348 -62
l-187 0 -5 -32 c-3 -18 -13 -107 -21 -198 -30 -313 -86 -619 -185 -1020 -86
-345 -140 -486 -205 -536 -18 -13 -35 -24 -39 -24 -29 0 -80 -39 -109 -83 -42
-66 -97 -190 -97 -220 l0 -24 -272 -6 c-149 -4 -467 -7 -707 -7 -900 0 -2835
-27 -3346 -46 l-170 -7 -13 37 c-18 50 -57 76 -222 152 -208 95 -263 136 -383
288 l-55 69 34 126 c39 144 41 171 16 213 -29 50 -212 124 -212 86 0 -8 11
-43 25 -78 31 -79 31 -82 -2 -78 -37 4 -65 49 -94 150 -35 122 -33 370 4 635
15 105 27 194 27 197 0 3 10 6 22 6 26 0 117 53 283 163 279 185 425 336 608
625 195 310 283 597 327 1077 42 459 -45 886 -258 1268 -113 203 -354 465
-614 672 -76 60 -138 111 -138 115 0 3 9 23 20 45 22 44 26 104 9 170 l-11 44
-130 47 c-75 28 -133 54 -138 64 -5 10 -12 44 -15 76 -12 118 -14 124 -41 124
-13 0 -34 11 -47 26 -50 57 -106 248 -93 317 3 19 24 58 46 87 44 59 60 103
60 166 l0 42 -132 6 c-128 6 -1305 27 -1458 25 -41 0 -86 -5 -100 -10z m1372
-80 c3 -20 0 -33 -8 -36 -21 -8 -34 6 -34 38 0 22 5 29 19 29 13 0 20 -9 23
-31z m-194 -1 c20 -20 14 -40 -10 -36 -15 2 -24 11 -26 26 -4 24 16 30 36 10z
m-134 -7 c27 -6 28 -7 11 -21 -15 -13 -82 -15 -465 -15 -383 0 -450 2 -465 15
-17 14 -14 15 36 21 73 8 847 8 883 0z m-451 -147 c53 -3 97 -9 97 -12 1 -4
11 -79 24 -167 l22 -160 -45 -7 c-25 -4 -125 -9 -221 -10 l-175 -3 -3 170 c-3
163 -2 171 19 187 22 19 8 19 282 2z m319 -22 c3 -11 2 -57 -3 -103 -4 -46 -9
-100 -10 -119 -3 -46 -16 83 -18 173 -1 51 2 67 13 67 7 0 16 -8 18 -18z
m-122 -326 c-5 -5 -12 -7 -15 -4 -3 3 0 75 7 159 l13 154 3 -149 c1 -91 -1
-153 -8 -160z m-135 -133 c4 -21 10 -48 16 -61 7 -19 12 -21 29 -12 11 6 32
29 47 51 30 46 60 56 114 40 21 -7 39 -13 39 -15 0 -18 -38 -108 -55 -132 -31
-41 -138 -98 -171 -90 -25 7 -72 63 -105 129 -40 78 -80 65 -154 -52 l-56 -89
-37 9 c-20 4 -42 16 -49 25 -16 22 -17 85 -1 118 11 27 19 30 80 40 21 4 55
22 78 41 41 34 44 35 130 35 l89 0 6 -37z m410 -63 c23 -9 25 -13 14 -26 -7
-8 -25 -22 -40 -29 -25 -14 -27 -13 -33 9 -12 50 8 65 59 46z m115 -78 c0 -13
-32 -39 -56 -46 -28 -8 -74 9 -74 28 0 8 8 17 18 19 31 8 112 7 112 -1z m-656
-38 c12 -30 6 -42 -25 -53 -75 -26 -93 3 -30 46 40 27 47 28 55 7z m444 -20
c41 -11 22 -24 -35 -24 -53 1 -56 2 -39 15 21 16 38 18 74 9z m-1018 -24 c0
-11 -2 -20 -4 -20 -2 0 -12 -3 -21 -6 -14 -6 -14 -3 -4 20 14 31 29 34 29 6z
m218 -2 c-2 -18 -10 -23 -33 -23 -23 0 -31 5 -33 23 -3 19 1 22 33 22 32 0 36
-3 33 -22z m1745 -74 c17 -4 27 -12 27 -23 0 -17 -31 -18 -472 -25 -260 -3
-711 -12 -1003 -18 -704 -16 -680 -16 -749 5 -37 12 -55 22 -49 28 10 10 329
25 818 39 310 8 1375 4 1428 -6z m-215 -207 c240 -44 403 -136 612 -347 297
-298 473 -592 569 -947 137 -507 118 -870 -73 -1428 -74 -216 -90 -250 -194
-407 -96 -143 -218 -287 -323 -381 -85 -77 -304 -223 -413 -277 -115 -58 -178
-63 -251 -23 -27 15 -51 36 -53 46 -3 17 -1 17 33 2 50 -20 57 -19 53 8 -2 18
-10 23 -43 25 -48 4 -255 -28 -255 -40 0 -4 31 -8 69 -8 82 0 93 -9 99 -84 4
-48 -23 -359 -34 -397 -2 -9 -23 -22 -47 -28 -74 -19 -80 7 -46 217 26 155 19
203 -29 220 -47 16 -70 44 -125 146 -62 118 -93 145 -209 189 l-86 32 79 120
c107 163 113 193 106 484 -4 150 -10 233 -21 271 -8 30 -61 179 -117 330 -55
151 -110 301 -122 333 -18 49 -24 56 -42 51 -67 -20 -90 -61 -101 -180 -6 -65
-17 -103 -66 -217 -85 -200 -125 -369 -149 -632 -21 -236 6 -330 148 -504 33
-40 41 -56 31 -62 -10 -5 -326 -118 -375 -134 -8 -3 -6 -21 8 -65 10 -34 19
-70 19 -80 0 -10 -32 -73 -72 -139 l-72 -120 -62 58 c-70 66 -143 98 -301 132
-200 43 -355 134 -593 346 -254 227 -340 341 -446 587 -154 359 -214 642 -214
999 0 309 47 543 170 853 80 200 271 520 373 625 107 110 477 391 539 410 31
10 376 26 688 32 80 2 393 3 695 2 469 -1 564 -4 643 -18z m-649 -2765 c-6
-72 -11 -86 -37 -116 -16 -19 -38 -58 -47 -88 -10 -29 -25 -62 -35 -73 -10
-12 -20 -44 -23 -79 -10 -97 -40 -104 -51 -12 -4 30 -13 59 -19 65 -7 5 -34
11 -62 13 -54 3 -57 1 -71 -87 -7 -44 -5 -47 -46 59 -32 83 -53 88 -45 11 4
-39 21 -89 53 -156 26 -55 45 -102 41 -105 -8 -9 -66 29 -102 66 -29 30 -30
35 -33 143 -8 251 35 439 214 920 l58 159 106 -319 106 -318 -7 -83z m7541
-668 l0 -45 -25 18 c-29 21 -30 26 -9 58 22 34 34 23 34 -31z m-7708 -130 c15
-8 48 -14 73 -14 75 0 131 -19 179 -61 41 -36 44 -43 56 -119 11 -71 11 -83
-4 -102 -9 -13 -23 -33 -32 -45 -20 -28 -22 -72 -6 -203 7 -60 8 -118 4 -135
-7 -26 -14 -30 -48 -33 -52 -4 -63 -17 -25 -30 33 -12 43 -42 14 -42 -38 0
-96 23 -125 49 -39 35 -49 108 -24 171 10 25 16 70 16 119 l0 79 -47 24 c-40
19 -64 23 -140 23 -80 0 -94 -3 -108 -20 -26 -35 -29 -67 -10 -141 19 -75 17
-175 -5 -254 -17 -60 -20 -62 -91 -53 -60 8 -64 10 -67 36 -2 15 6 86 17 157
27 169 27 204 -1 230 -12 11 -25 20 -30 20 -15 0 -38 60 -38 100 0 48 47 137
91 175 26 21 91 45 229 84 39 11 82 5 122 -15z m7431 -151 c-7 -2 -21 -2 -30
0 -10 3 -4 5 12 5 17 0 24 -2 18 -5z m-143 -102 c29 -6 19 -8 -55 -13 -105 -7
-176 1 -183 21 -4 12 12 13 99 7 57 -4 120 -10 139 -15z m380 -18 c-1 -10 -7
-29 -15 -43 -14 -25 -14 -24 -15 18 0 31 4 42 15 42 8 0 15 -8 15 -17z m-237
-87 c104 -15 113 -18 102 -36 -4 -7 -49 -10 -135 -8 -70 2 -132 0 -136 -5 -16
-16 16 -29 92 -38 121 -15 181 -29 194 -44 21 -25 -34 -37 -195 -42 -163 -6
-279 7 -304 32 -15 15 -14 18 8 36 18 15 39 19 97 19 67 0 74 2 74 20 0 22
-15 27 -103 33 -63 4 -93 21 -67 37 23 14 262 12 373 -4z m-7515 -59 c19 -40
35 -165 27 -207 -4 -19 -8 -59 -10 -89 -2 -44 0 -54 15 -58 31 -8 33 -75 6
-201 l-23 -114 24 -9 c13 -5 50 -9 82 -9 39 0 63 -5 71 -15 19 -23 2 -35 -51
-35 -34 0 -51 -5 -55 -14 -3 -8 -13 -17 -22 -21 -29 -11 -311 -24 -564 -26
-230 -1 -243 0 -243 17 0 14 18 26 62 44 72 29 93 46 46 37 -34 -7 -53 7 -35
25 6 6 28 14 49 17 31 6 37 11 35 26 -2 11 -5 39 -5 63 -2 43 -2 43 -34 37
-26 -5 -34 -2 -43 15 -8 15 -8 21 2 25 97 34 137 53 167 81 l36 33 -1 123 c-1
74 -8 149 -17 188 -9 36 -12 69 -8 73 15 15 76 -8 88 -34 17 -34 30 -133 38
-276 l7 -123 43 0 c55 0 217 28 229 40 5 5 5 77 -1 177 -10 158 -10 170 9 206
23 46 55 48 76 4z m-556 -154 c14 -13 18 -31 18 -88 0 -97 -12 -112 -76 -99
l-49 9 -3 68 c-3 63 -1 69 27 97 33 34 56 38 83 13z m8197 -38 c3 -4 7 -96 9
-205 l3 -198 -48 -6 c-44 -6 -423 -36 -450 -36 -13 0 -20 69 -28 297 l-5 152
87 4 c116 6 424 -1 432 -8z m-6791 -333 c2 -7 -3 -12 -12 -12 -9 0 -16 7 -16
16 0 17 22 14 28 -4z m-348 -81 c0 -11 -26 -22 -34 -14 -12 12 -5 23 14 23 11
0 20 -4 20 -9z m7082 -91 c48 -12 62 -27 47 -51 -6 -11 -44 -15 -166 -17 -181
-4 -293 4 -319 23 -16 11 -17 17 -6 40 l13 27 192 -5 c106 -3 213 -11 239 -17z
m-6739 -11 c-8 -8 -27 -8 -64 -1 l-54 10 65 1 c46 1 61 -2 53 -10z m6725 -115
c50 -3 92 -9 92 -12 0 -4 -5 -14 -10 -22 -18 -28 -499 -24 -528 4 -9 9 19 35
41 38 30 4 292 -1 405 -8z m-6632 -111 c8 -32 -26 -185 -42 -190 -7 -2 -24 7
-40 20 l-28 24 13 84 c7 46 17 92 22 101 9 17 12 17 39 3 17 -9 33 -27 36 -42z
m-827 37 c33 -17 64 -108 69 -200 5 -90 13 -110 43 -110 11 0 19 -7 19 -15 0
-9 11 -21 25 -27 30 -13 33 -44 5 -51 -20 -5 -25 -23 -20 -77 1 -14 6 -30 12
-37 7 -9 -1 -13 -29 -18 -84 -14 -99 -31 -62 -71 20 -21 20 -26 8 -73 -7 -28
-16 -51 -20 -51 -12 0 -17 24 -44 210 -14 96 -32 199 -40 228 -13 44 -19 52
-40 52 -29 0 -27 7 -50 -307 -9 -122 -20 -236 -25 -254 -21 -73 -71 -91 -178
-64 -76 18 -132 47 -132 68 0 7 -14 24 -31 36 -22 17 -29 29 -25 43 3 13 -4
33 -18 52 -13 17 -38 75 -56 129 l-32 97 -34 0 c-42 0 -46 22 -9 46 14 9 40
42 59 73 58 100 72 79 115 -170 35 -204 52 -254 92 -274 27 -14 30 -14 65 17
55 49 65 82 75 263 4 89 11 169 14 178 4 9 16 17 28 19 19 3 25 17 44 107 13
57 32 124 44 148 20 41 23 43 66 43 24 0 52 -4 62 -10z m331 0 c11 -7 0 -10
-38 -10 -33 0 -51 4 -47 10 8 13 65 13 85 0z m-779 -17 c51 -31 67 -80 84
-273 22 -254 18 -352 -15 -357 -32 -6 -40 14 -50 123 -6 60 -15 134 -21 164
-11 55 -69 183 -89 195 -15 9 -12 90 4 130 17 40 41 45 87 18z m-381 -29 c64
-30 105 -65 130 -114 27 -53 30 -100 6 -100 -8 0 -17 -4 -20 -9 -9 -14 4 -41
20 -41 19 0 18 -14 -2 -31 -14 -12 -19 -10 -38 14 -12 15 -51 79 -86 143 -35
64 -74 123 -87 131 -59 39 -3 44 77 7z m1168 -14 c26 0 32 -37 7 -46 -24 -9
-121 6 -141 21 -29 23 0 37 61 31 28 -3 60 -6 73 -6z m6626 -12 c9 -37 7 -435
-4 -537 -12 -111 -28 -180 -39 -162 -8 13 -4 557 5 659 6 64 26 85 38 40z
m496 7 c0 -17 -102 -20 -286 -7 -108 7 -108 7 -44 13 36 3 125 6 198 7 111 2
132 0 132 -13z m-6840 -80 c10 -13 9 -15 -9 -15 -12 0 -21 6 -21 15 0 8 4 15
9 15 5 0 14 -7 21 -15z m-230 -20 c0 -12 -13 -15 -57 -15 -53 1 -56 2 -39 15
27 20 96 20 96 0z m7055 5 c73 -5 31 -7 -160 -7 -143 0 -231 3 -195 7 89 9
235 9 355 0z m-6443 -275 c58 -113 168 -234 288 -315 88 -60 140 -129 88 -117
-34 7 -275 119 -338 156 -49 30 -120 52 -120 38 0 -17 25 -57 39 -62 39 -15
153 -89 162 -106 16 -30 -30 -42 -131 -35 -91 6 -207 -7 -248 -27 -32 -15 -47
-39 -39 -61 6 -14 11 -14 51 6 38 18 49 20 71 10 14 -6 25 -18 25 -26 0 -17
-56 -93 -110 -151 -48 -51 -65 -84 -52 -97 19 -19 60 1 83 39 12 21 36 53 53
72 34 37 222 181 237 181 23 0 5 -41 -30 -69 -44 -35 -101 -118 -101 -147 1
-72 51 -51 120 50 66 99 84 111 161 102 69 -7 91 -17 136 -59 31 -29 93 -157
93 -192 0 -8 -7 -26 -15 -38 -12 -19 -36 -134 -47 -227 -2 -14 -17 28 -36 100
-59 221 -77 243 -182 220 -74 -17 -101 -48 -130 -150 -18 -63 -26 -79 -39 -76
-9 3 -28 8 -44 12 -15 3 -41 24 -58 45 -25 32 -37 39 -67 39 -30 0 -43 -8 -81
-51 -25 -28 -71 -76 -102 -107 -30 -31 -64 -72 -74 -90 -14 -23 -26 -32 -40
-30 -17 3 -20 9 -17 51 2 27 13 83 24 125 29 106 29 136 1 140 -12 2 -27 10
-34 18 -15 18 0 74 42 154 15 30 36 89 45 130 19 89 50 134 101 151 85 27 106
66 58 107 -14 12 -25 26 -25 30 0 31 34 114 53 127 30 21 64 19 72 -5 4 -12
15 -20 29 -20 43 0 47 19 27 121 -14 75 -16 114 -10 184 4 50 8 99 9 110 1 11
18 -32 39 -95 21 -63 49 -138 63 -165z m-312 201 c0 -24 -28 -38 -91 -43 l-61
-6 16 32 c16 29 19 31 76 31 44 0 60 -4 60 -14z m-330 -27 c-15 -27 -34 -33
-59 -19 -38 20 -26 40 24 40 43 0 45 -1 35 -21z m7135 -8 c40 -5 54 -10 43
-15 -20 -9 -514 -4 -523 6 -4 4 -4 12 1 19 5 9 55 10 213 4 113 -4 233 -10
266 -14z m-7317 -18 c4 -25 -16 -31 -36 -11 -20 20 -14 40 11 36 14 -2 23 -11
25 -25z m6652 -96 c7 -57 11 -134 8 -172 -4 -64 -7 -70 -40 -99 -20 -17 -64
-42 -97 -54 -34 -13 -66 -33 -72 -44 -14 -26 -3 -123 17 -139 20 -17 84 -15
121 5 86 44 144 -7 145 -129 1 -110 -42 -182 -120 -205 -58 -17 -195 -31 -205
-21 -10 10 22 76 57 118 17 20 42 35 73 43 27 7 56 14 66 17 20 5 23 48 4 56
-22 8 -156 -10 -172 -23 -8 -7 -15 -19 -15 -27 0 -8 -6 -13 -12 -10 -29 9 -4
371 34 486 l11 34 14 -26 c18 -35 29 -34 42 4 6 17 23 43 39 57 23 22 32 46
52 134 12 59 26 105 30 103 4 -2 13 -51 20 -108z m-6185 53 c9 -15 -17 -22
-61 -18 -38 4 -38 4 -14 15 32 15 67 16 75 3z m-335 -25 c11 -13 8 -15 -19
-15 -31 0 -42 14 -18 23 20 9 24 8 37 -8z m7218 -13 c18 -14 -26 -19 -165 -20
-93 -1 -200 -4 -240 -8 -64 -6 -72 -4 -82 14 -6 10 -9 21 -7 23 4 4 488 -5
494 -9z m-838 -29 c0 -10 -4 -25 -10 -33 -8 -12 -10 -12 -16 3 -7 20 1 47 16
47 5 0 10 -8 10 -17z m-6096 -19 c9 -3 16 -13 16 -21 0 -12 -15 -13 -92 -7
-51 3 -94 8 -96 9 -3 3 105 21 140 24 9 0 23 -2 32 -5z m6912 -62 c18 -10 18
-11 1 -17 -19 -8 -347 22 -356 31 -10 11 335 -3 355 -14z m-7186 -42 c0 -13
-7 -20 -20 -20 -13 0 -20 7 -20 20 0 13 7 20 20 20 13 0 20 -7 20 -20z m7108
-46 c76 -5 102 -9 102 -20 0 -22 -64 -27 -262 -20 -191 7 -248 17 -248 41 0
14 145 13 408 -1z m-966 -45 c27 -36 31 -185 5 -204 -31 -23 -37 -78 -37 -390
0 -289 -1 -303 -24 -375 -14 -41 -25 -67 -25 -57 -1 11 -10 21 -21 24 -23 6
-25 43 -10 188 5 50 16 218 25 375 16 294 29 443 40 461 9 14 26 7 47 -22z
m1293 -136 c-4 -11 -9 -13 -16 -6 -7 7 -6 19 3 39 12 27 13 27 16 5 2 -12 1
-30 -3 -38z m-7365 -2 c0 -10 -35 -21 -69 -21 -31 0 -17 16 19 23 43 7 50 7
50 -2z m-430 -72 c0 -44 -3 -59 -14 -59 -22 0 -29 38 -16 86 17 58 30 46 30
-27z m7588 12 c4 -12 -10 -13 -79 -8 -46 4 -151 9 -233 12 -82 2 -151 7 -154
10 -3 3 99 4 228 3 190 -3 234 -6 238 -17z m-5888 -23 c-1 -40 -26 -142 -43
-173 l-16 -30 -1 36 c0 44 19 148 31 171 13 25 29 22 29 -4z m4578 -34 c21 -6
22 -10 22 -129 l0 -123 -1457 -7 c-1800 -9 -3018 -4 -3050 14 -25 13 -28 29
-13 83 10 35 13 37 63 42 29 3 232 10 452 16 374 9 691 14 2630 40 1155 15
1349 21 1295 36 -25 7 -74 16 -110 22 l-65 9 105 1 c58 1 115 -1 128 -4z
m1201 -44 c20 -11 -228 -23 -291 -15 -135 18 -55 34 137 27 77 -2 146 -8 154
-12z m-7234 -85 l40 -13 -62 -1 c-57 -1 -81 7 -66 23 10 9 43 6 88 -9z m-197
-10 c-10 -10 -276 -24 -333 -17 -59 7 -59 7 40 13 141 7 299 10 293 4z m-230
-118 c56 -114 78 -632 88 -2054 4 -524 11 -950 15 -947 5 3 13 19 18 37 l9 32
1 -40 c1 -42 -13 -75 -25 -62 -4 4 -18 -3 -32 -15 -20 -19 -37 -24 -106 -26
l-83 -4 -6 39 c-9 50 -9 2600 0 2860 l6 202 41 4 c57 5 59 4 74 -26z m203 21
c0 -7 0 -377 -1 -823 -1 -1159 -18 -1874 -48 -2023 -4 -18 -7 618 -7 1413 l0
1445 28 0 c15 0 27 -6 28 -12z m7317 -5 c-10 -2 -28 -2 -40 0 -13 2 -5 4 17 4
22 1 32 -1 23 -4z m-7226 -91 c-1 -31 -6 -73 -11 -92 -7 -27 -9 -12 -10 70 -1
83 1 101 12 91 7 -7 11 -33 9 -69z m6098 10 c32 -4 -169 -11 -475 -15 -291 -4
-784 -12 -1095 -17 -1593 -27 -2021 -32 -2415 -34 -389 -1 -430 1 -433 15 -2
11 6 19 25 23 113 28 4202 53 4393 28z m1150 -36 c0 -20 -33 -26 -152 -26 -84
0 -110 3 -122 16 -9 8 -16 17 -16 20 0 2 65 4 145 4 117 0 145 -3 145 -14z
m-340 -193 c0 -97 -2 -174 -5 -172 -4 5 -65 272 -65 288 0 16 41 61 56 61 12
0 14 -30 14 -177z m-756 149 c27 -4 51 -12 53 -18 5 -16 -667 -24 -2169 -27
-1187 -2 -1235 -1 -1205 30 14 14 3221 28 3321 15z m-3398 -32 c-27 -8 -289
-21 -733 -36 -229 -7 -353 0 -353 22 0 16 87 19 695 21 248 1 408 -2 391 -7z
m4389 -24 c123 -13 116 -22 -25 -32 -94 -6 -143 4 -148 29 -4 21 16 21 173 3z
m-6886 -651 l10 -491 -24 -74 -24 -75 0 560 c-1 308 2 598 6 645 l7 85 8 -80
c4 -44 12 -301 17 -570z m841 589 c0 -28 -3 -35 -17 -32 -12 2 -19 14 -21 36
-3 27 0 32 17 32 17 0 21 -6 21 -36z m4113 11 c1 -5 -14 -11 -33 -13 -33 -2
-34 -2 -15 13 21 17 45 17 48 0z m157 5 c11 -7 7 -10 -18 -10 -20 0 -31 4 -27
10 8 13 26 13 45 0z m590 0 c11 -7 7 -10 -18 -10 -20 0 -31 4 -27 10 8 13 26
13 45 0z m98 -48 c2 -23 -1 -42 -6 -42 -13 0 -22 25 -22 62 0 46 24 29 28 -20z
m-3045 31 c-7 -2 -19 -2 -25 0 -7 3 -2 5 12 5 14 0 19 -2 13 -5z m530 -4 c-14
-14 -157 -14 -181 0 -12 8 12 10 88 11 77 0 101 -3 93 -11z m3256 -48 c10 -7
11 -13 2 -29 -6 -12 -14 -84 -18 -162 -5 -124 -8 -140 -23 -140 -24 0 -30 26
-37 177 -4 100 -3 136 7 148 14 16 47 20 69 6z m401 -8 c0 -16 -10 -18 -96
-15 -53 2 -94 6 -91 8 7 8 96 21 145 23 34 1 42 -2 42 -16z m-1962 -15 c-2
-18 -10 -23 -33 -23 -23 0 -31 5 -33 23 -3 19 1 22 33 22 32 0 36 -3 33 -22z
m140 0 c-3 -20 -9 -23 -43 -23 -34 0 -40 3 -43 23 -3 20 1 22 43 22 42 0 46
-2 43 -22z m-768 -3 c11 -13 8 -15 -20 -15 -28 0 -31 2 -20 15 7 8 16 15 20
15 4 0 13 -7 20 -15z m271 4 c25 -13 16 -29 -17 -29 -17 0 -24 5 -24 20 0 22
12 25 41 9z m807 -15 c-4 -3 -19 -4 -35 -2 l-28 4 25 11 c23 10 51 1 38 -13z
m282 11 c0 -19 -21 -19 -46 0 -18 14 -17 14 14 15 22 0 32 -5 32 -15z m689
-55 c5 -24 8 -46 6 -49 -8 -8 -46 89 -39 100 10 17 22 -2 33 -51z m-4751 27
c3 -14 -1 -18 -20 -15 -12 2 -24 11 -26 21 -3 14 1 18 20 15 12 -2 24 -11 26
-21z m260 0 c3 -14 -1 -18 -20 -15 -12 2 -24 11 -26 21 -3 14 1 18 20 15 12
-2 24 -11 26 -21z m892 14 c0 -14 -18 -23 -30 -16 -6 4 -8 11 -5 16 8 12 35
12 35 0z m425 -2 c4 -6 5 -13 1 -16 -8 -8 -56 6 -56 17 0 13 47 13 55 -1z
m115 -10 c0 -18 -2 -19 -15 -9 -15 12 -12 30 6 30 5 0 9 -10 9 -21z m287 5
c-3 -3 -12 -4 -19 -1 -8 3 -5 6 6 6 11 1 17 -2 13 -5z m-3169 -50 c4 -47 -14
-36 -24 15 -6 26 -4 33 7 29 8 -3 15 -21 17 -44z m-740 -311 c-2 -76 -6 -112
-12 -100 -5 10 -5 112 0 235 8 191 9 203 12 100 1 -65 1 -171 0 -235z m662
246 c0 -84 -2 -86 -42 -51 -36 31 -14 132 29 132 10 0 13 -20 13 -81z m6440
40 c0 -6 -4 -7 -10 -4 -5 3 -10 11 -10 16 0 6 5 7 10 4 6 -3 10 -11 10 -16z
m-7000 -81 c-1 -31 -1 -32 -15 -14 -19 25 -19 46 0 46 10 0 15 -10 15 -32z
m6509 -50 c-1 -61 -14 -145 -18 -113 -1 6 -6 41 -11 78 -7 46 -7 74 0 88 20
37 30 19 29 -53z m-516 2 c30 0 37 -4 37 -20 0 -20 -7 -20 -922 -20 -508 0
-1028 -5 -1156 -10 -298 -13 -882 -15 -947 -5 l-50 9 35 7 c40 9 404 27 730
37 165 5 1849 7 2273 2z m-5510 -81 c2 -39 -1 -44 -21 -47 -31 -5 -38 22 -17
69 22 47 35 39 38 -22z m87 31 c0 -20 -5 -30 -15 -30 -18 0 -19 14 -5 41 15
27 20 24 20 -11z m230 -17 c0 -7 -7 -13 -15 -13 -10 0 -15 10 -15 33 1 30 1
31 15 13 8 -11 15 -26 15 -33z m1750 37 c13 -9 12 -13 -5 -26 -16 -13 -36 -15
-105 -9 -145 11 -157 18 -55 31 119 15 147 16 165 4z m273 -1 c31 -7 57 -15
57 -19 0 -12 -78 -21 -116 -14 -32 6 -43 22 -27 37 9 9 21 9 86 -4z m-2823
-54 c0 -8 -7 -15 -15 -15 -16 0 -20 12 -8 23 11 12 23 8 23 -8z m0 -155 c0
-20 -5 -30 -15 -30 -18 0 -19 14 -5 41 15 27 20 24 20 -11z m7907 -24 c3 -2
-47 -94 -110 -203 -63 -109 -135 -237 -161 -285 -58 -107 -111 -257 -95 -272
15 -16 31 9 104 159 118 240 261 495 325 577 15 19 33 29 66 34 25 3 47 5 49
2 9 -8 -65 -140 -217 -388 -205 -332 -328 -514 -352 -519 -19 -3 -19 4 -12
215 6 211 22 360 44 416 6 15 34 64 62 109 28 45 49 83 47 86 -2 2 -22 -2 -43
-9 -34 -11 -43 -22 -79 -90 -22 -43 -45 -83 -52 -89 -23 -23 -30 -4 -18 54 10
49 19 65 53 97 57 52 57 85 -1 40 l-25 -20 -7 27 c-9 38 14 55 87 62 69 7 328
5 335 -3z m-7497 -65 c5 -11 10 -39 10 -63 l0 -43 -20 44 c-22 47 -26 81 -10
81 5 0 14 -9 20 -19z m-410 -41 c0 -29 -4 -40 -15 -40 -18 0 -18 7 -4 49 15
41 19 39 19 -9z m-79 -151 c9 -235 11 -1783 2 -1886 -4 -56 -10 -83 -18 -83
-18 0 -29 610 -24 1390 2 349 0 656 -5 682 -6 35 -5 52 4 63 29 34 35 8 41
-166z m6825 10 l-14 -34 -1 37 c-1 21 4 38 12 41 18 6 20 -7 3 -44z m81 -191
c5 -46 3 -56 -12 -62 -10 -3 -20 -5 -22 -2 -2 2 -1 34 3 70 8 78 22 75 31 -6z
m-6797 -68 c0 -13 -7 -20 -20 -20 -11 0 -20 2 -20 4 0 2 -3 11 -6 20 -5 12 0
16 20 16 19 0 26 -5 26 -20z m146 -371 c16 -114 15 -180 -2 -186 -16 -5 -23
25 -34 145 -17 186 11 218 36 41z m7006 -301 c-17 -17 -24 -4 -16 28 7 28 7
28 17 6 7 -16 7 -26 -1 -34z m-6997 -68 c0 -217 -18 -779 -25 -775 -12 8 -22
447 -14 666 6 185 9 210 23 207 13 -3 16 -19 16 -98z m6835 91 c0 -14 -18 -23
-30 -16 -6 4 -8 11 -5 16 8 12 35 12 35 0z m-6923 -163 c-3 -7 -5 -2 -5 12 0
14 2 19 5 13 2 -7 2 -19 0 -25z m7253 -78 c-18 -12 -127 -13 -134 -2 -3 5 30
9 72 10 52 1 72 -2 62 -8z m-7826 -929 c18 -7 18 -8 -5 -14 -46 -13 -99 -8
-99 8 0 11 11 15 43 14 23 0 51 -4 61 -8z m301 -1 c4 -6 -31 -10 -99 -10 -59
0 -108 4 -111 10 -4 6 31 10 99 10 59 0 108 -4 111 -10z m-113 -87 c35 -32 16
-146 -45 -268 -35 -70 -41 -77 -48 -58 -18 49 -39 176 -39 237 0 58 3 67 26
85 32 25 81 27 106 4z m183 -96 c14 -43 30 -110 35 -150 7 -55 13 -75 29 -86
24 -15 28 -51 6 -51 -19 0 -33 -55 -41 -156 -6 -69 -4 -82 10 -87 22 -9 20
-39 -5 -71 -18 -22 -20 -32 -11 -51 13 -27 7 -35 -25 -35 -19 0 -23 -5 -21
-29 2 -17 -1 -31 -7 -33 -14 -4 -30 106 -44 286 -6 83 -13 151 -15 153 -2 2
-6 -63 -10 -144 -11 -235 -35 -592 -46 -663 -12 -86 -33 -104 -110 -97 -66 6
-150 24 -169 36 -24 15 -38 115 -27 184 9 58 -3 217 -19 260 -5 12 -2 17 12
17 36 0 43 20 43 121 0 76 -3 99 -16 110 -13 11 -15 26 -9 86 4 49 3 78 -4 87
-16 19 7 68 28 64 9 -2 25 -27 36 -58 18 -50 19 -83 20 -375 1 -323 4 -355 39
-384 19 -16 78 -7 96 14 8 10 17 108 26 287 15 300 19 352 40 478 14 84 56
232 96 339 24 62 25 61 63 -52z m-468 -89 c-3 -7 -5 -2 -5 12 0 14 2 19 5 13
2 -7 2 -19 0 -25z m663 5 c-1 -21 -13 -53 -21 -53 -10 0 -12 43 -2 53 9 9 23
9 23 0z m-472 -666 c14 -17 32 -129 25 -157 -14 -52 -43 13 -55 123 -6 48 7
62 30 34z m253 -120 c-17 -17 -24 -1 -10 25 12 21 14 21 17 4 2 -10 -1 -23 -7
-29z m99 -245 c0 -23 -19 -42 -42 -42 -18 0 -23 16 -12 44 9 23 54 21 54 -2z
m-252 -286 c29 -8 60 -20 68 -26 16 -14 19 -114 4 -154 -13 -34 -38 -33 -46 2
-11 52 -36 100 -70 133 -35 34 -44 59 -21 59 6 0 36 -7 65 -14z m94 -293 c18
-20 38 -86 38 -123 0 -40 -14 -52 -71 -61 -47 -7 -58 -5 -100 18 -91 49 -111
89 -66 130 53 50 168 70 199 36z"/>
<path d="M2830 11491 c-80 -7 -100 -14 -100 -35 0 -11 41 -13 218 -9 119 3
221 9 226 13 30 28 -179 47 -344 31z"/>
<path d="M1190 11351 c0 -30 6 -44 22 -55 45 -32 104 -12 96 31 -3 17 -78 62
-105 63 -8 0 -13 -14 -13 -39z"/>
<path d="M2883 11374 c-3 -8 -3 -18 1 -21 10 -10 334 -20 379 -12 41 7 66 24
53 36 -4 5 -102 9 -217 10 -181 2 -211 1 -216 -13z"/>
<path d="M3295 11270 c-202 -6 -187 -15 41 -26 107 -5 143 -4 149 5 4 7 3 16
-1 19 -5 4 -90 5 -189 2z"/>
<path d="M3185 11159 c-10 -14 -3 -19 42 -30 46 -10 154 -11 208 0 50 10 34
17 -68 31 -101 13 -174 13 -182 -1z"/>
<path d="M3270 11026 c0 -24 33 -33 157 -40 111 -8 223 0 223 14 0 4 -64 13
-142 19 -79 6 -164 14 -190 17 -40 5 -48 3 -48 -10z"/>
<path d="M3490 10895 c-87 -18 -120 -31 -120 -50 0 -13 25 -15 175 -15 168 0
175 -1 175 -20 0 -11 -8 -28 -19 -39 -18 -18 -118 -61 -144 -61 -7 -1 -23 -7
-37 -15 l-25 -13 25 -6 c14 -2 66 -8 115 -11 103 -7 139 -20 143 -53 4 -27 18
-28 32 -2 15 28 62 50 109 50 86 0 127 43 51 53 -22 3 -70 20 -107 37 l-66 32
38 21 c63 36 63 36 -117 86 -87 24 -134 25 -228 6z"/>
<path d="M3845 10573 c-180 -21 -265 -38 -265 -54 0 -18 84 -29 226 -29 160 0
179 -5 168 -46 -5 -17 -24 -22 -165 -42 -89 -12 -168 -26 -176 -31 -10 -5 17
-11 78 -15 215 -16 309 -34 309 -62 0 -22 -36 -35 -172 -59 -72 -13 -132 -26
-135 -29 -6 -6 21 -13 107 -26 43 -7 87 -20 103 -32 24 -17 38 -19 83 -13 49
6 54 5 54 -12 0 -11 -14 -32 -31 -49 -29 -28 -34 -29 -147 -32 -64 -2 -121 -8
-127 -13 -17 -17 9 -28 89 -38 63 -7 83 -14 96 -31 l16 -21 49 21 c34 15 60
19 82 15 38 -7 40 -13 13 -48 -25 -32 -91 -47 -204 -47 -100 0 -146 -8 -146
-25 0 -18 38 -25 140 -26 103 0 123 -12 96 -54 -16 -24 -37 -32 -150 -57 -33
-7 -61 -18 -63 -25 -7 -19 58 -26 163 -15 55 5 103 6 107 2 12 -11 -19 -67
-43 -80 -11 -6 -64 -15 -118 -20 -114 -11 -134 -17 -130 -39 3 -14 27 -17 180
-21 97 -3 180 -8 184 -13 17 -17 -20 -29 -150 -47 -165 -23 -216 -36 -216 -54
0 -21 23 -26 113 -26 96 0 112 -7 103 -43 -7 -31 -53 -47 -133 -47 -28 0 -64
-5 -80 -11 -27 -10 -27 -11 -9 -25 14 -10 50 -14 125 -14 126 0 151 -6 151
-31 0 -26 -24 -35 -158 -59 -124 -23 -162 -34 -162 -49 0 -18 90 -24 227 -15
113 8 136 7 141 -5 7 -19 -40 -58 -87 -71 -21 -5 -112 -13 -202 -18 l-164 -7
125 -23 c162 -30 174 -34 178 -59 4 -26 -12 -30 -168 -43 -167 -14 -195 -19
-182 -32 6 -6 79 -13 176 -16 220 -6 219 -21 -4 -68 -173 -37 -194 -44 -182
-56 7 -7 81 -13 192 -16 140 -4 180 -8 180 -18 0 -29 -232 -68 -415 -68 -116
-1 -134 1 -172 22 -53 28 -63 28 -63 -2 0 -37 60 -54 232 -66 80 -5 153 -13
162 -16 54 -21 -22 -38 -258 -59 -94 -9 -172 -17 -174 -19 -2 -2 32 -7 75 -11
505 -43 511 -46 177 -89 -104 -13 -202 -30 -219 -36 -28 -11 -29 -12 -11 -22
11 -6 100 -14 198 -18 98 -4 181 -9 183 -12 2 -2 -57 -10 -133 -17 -181 -17
-318 -38 -350 -53 -15 -8 -28 -23 -30 -36 -3 -21 -1 -22 35 -17 156 22 288 32
320 23 69 -19 219 21 249 67 8 13 36 32 60 41 58 22 62 31 29 58 -34 27 -29
39 28 67 23 12 54 33 70 47 52 49 27 68 -65 52 -33 -6 -62 -9 -64 -7 -12 12
109 51 173 56 39 4 75 10 79 13 13 14 -6 38 -31 38 -53 0 -15 39 66 65 95 32
84 60 -30 74 -40 5 -75 12 -79 15 -11 12 23 34 78 51 77 24 96 39 119 90 14
32 30 50 55 62 19 9 37 22 40 30 7 16 -32 33 -74 33 -61 0 -39 35 42 65 26 10
53 24 60 32 6 8 13 48 14 89 3 79 -9 104 -47 104 -26 0 -24 16 7 52 14 17 24
40 22 52 -3 18 -12 22 -58 26 -88 8 -97 26 -37 71 23 18 49 25 97 29 78 6 85
22 26 60 -36 23 -38 27 -33 64 7 47 0 66 -23 66 -24 0 -52 34 -44 54 4 9 24
26 45 36 21 11 41 24 44 30 11 18 -15 40 -56 46 -79 13 -76 51 7 94 53 27 69
58 36 67 -12 3 -22 16 -26 33 -8 44 -42 49 -77 11 -17 -19 -38 -31 -53 -31
-41 0 -32 33 24 95 51 57 61 84 36 104 -11 9 -24 7 -60 -11 -25 -12 -48 -19
-52 -16 -14 14 8 45 51 70 37 23 45 33 45 57 0 43 -21 56 -71 43 -59 -15 -72
-7 -65 37 3 24 16 45 37 63 36 30 33 33 -39 41 -24 3 -51 12 -61 21 -17 15
-61 18 -136 9z m295 -775 c0 -44 -23 -72 -63 -79 -20 -3 -39 -4 -42 -1 -6 6
40 71 63 90 24 19 42 14 42 -10z m86 -145 c20 -27 17 -31 -23 -42 -47 -13
-103 -14 -103 -2 0 18 62 61 87 61 14 0 32 -8 39 -17z m-87 -292 c26 -16 -8
-41 -87 -66 -21 -6 -23 -4 -20 21 5 42 69 69 107 45z m58 -136 c11 -30 -26
-55 -80 -55 l-50 0 19 21 c19 22 68 48 92 49 7 0 15 -7 19 -15z m-112 -295
c-27 -52 -100 -81 -100 -40 0 11 91 67 113 70 1 0 -4 -13 -13 -30z"/>
<path d="M3600 10024 c0 -7 91 -47 96 -42 2 2 -3 14 -12 26 -11 15 -25 22 -50
22 -19 0 -34 -3 -34 -6z"/>
<path d="M3554 9867 c-29 -16 5 -37 58 -37 53 0 88 13 88 33 0 14 -122 17
-146 4z"/>
<path d="M3548 9695 c-4 -4 -4 -13 -1 -21 4 -10 23 -14 72 -13 64 1 65 1 36
14 -40 17 -99 28 -107 20z"/>
<path d="M3550 9500 c0 -6 37 -10 90 -10 53 0 90 4 90 10 0 6 -37 10 -90 10
-53 0 -90 -4 -90 -10z"/>
<path d="M3572 9333 c-24 -3 -32 -9 -30 -21 4 -20 51 -27 116 -17 33 5 42 10
40 23 -3 18 -56 24 -126 15z"/>
<path d="M3472 9168 c-23 -23 -11 -28 67 -28 88 0 111 5 111 26 0 18 -160 20
-178 2z"/>
<path d="M3568 9033 c6 -2 18 -2 25 0 6 3 1 5 -13 5 -14 0 -19 -2 -12 -5z"/>
<path d="M3444 9005 c-12 -47 18 -74 46 -40 17 20 9 46 -17 56 -19 7 -24 4
-29 -16z"/>
<path d="M3324 8815 c-10 -24 15 -45 52 -45 40 0 46 21 12 44 -28 20 -57 20
-64 1z"/>
<path d="M442 8621 c7 -11 19 -23 27 -26 11 -5 11 -2 -1 17 -20 30 -45 39 -26
9z"/>
<path d="M532 8468 c2 -18 10 -23 33 -23 23 0 31 5 33 23 3 19 -1 22 -33 22
-32 0 -36 -3 -33 -22z"/>
<path d="M2990 8361 c0 -29 14 -41 51 -41 26 0 24 16 -6 45 -32 33 -45 31 -45
-4z"/>
<path d="M3094 8349 c8 -52 22 -71 50 -67 15 2 22 11 24 34 3 33 -16 57 -57
69 -23 7 -24 6 -17 -36z"/>
<path d="M660 8328 c-34 -11 -34 -11 -10 -18 59 -18 131 -6 116 19 -9 13 -59
13 -106 -1z"/>
<path d="M2920 8209 c0 -30 80 -59 110 -39 22 14 2 29 -59 45 -48 12 -51 12
-51 -6z"/>
<path d="M804 8201 c9 -14 95 -45 103 -37 18 17 -16 41 -61 44 -30 2 -46 -1
-42 -7z"/>
<path d="M1182 8098 c-19 -19 -14 -27 26 -37 85 -21 101 -21 107 -2 12 38 -4
51 -64 51 -31 0 -62 -5 -69 -12z"/>
<path d="M1733 8086 c-24 -20 -25 -26 -14 -40 15 -18 48 -21 87 -6 l27 11 -28
29 c-35 36 -37 36 -72 6z"/>
<path d="M3119 8080 c-62 -8 -82 -16 -74 -31 7 -10 427 -13 488 -3 27 5 37 11
37 25 0 18 -11 19 -197 18 -109 -1 -223 -5 -254 -9z"/>
<path d="M935 8060 c-12 -20 16 -30 85 -29 64 1 65 1 33 15 -49 21 -109 28
-118 14z"/>
<path d="M2900 7992 c0 -43 25 -59 109 -65 102 -8 441 3 441 15 0 4 -107 8
-239 8 l-238 0 -6 30 c-6 25 -11 30 -37 30 -22 0 -30 -5 -30 -18z"/>
<path d="M1410 7962 c-38 -31 -6 -43 146 -54 137 -10 190 -6 178 13 -11 18
-56 30 -164 45 -134 17 -134 17 -160 -4z"/>
<path d="M1130 7931 c-34 -6 -33 -7 20 -14 92 -12 140 -9 140 8 0 12 -13 15
-62 14 -35 -1 -79 -5 -98 -8z"/>
<path d="M1366 7831 c-12 -18 36 -30 170 -41 174 -14 204 -13 204 5 0 22 -59
33 -221 40 -104 5 -148 4 -153 -4z"/>
<path d="M10308 4653 c-34 -39 -168 -335 -168 -372 0 -15 4 -21 9 -15 11 10
201 388 201 398 0 13 -27 5 -42 -11z"/>
<path d="M10515 8824 c-16 -2 -49 -7 -72 -10 -99 -12 -13 -44 117 -43 47 0 94
4 105 9 18 7 15 10 -19 25 -44 19 -86 25 -131 19z"/>
<path d="M10825 8776 c-16 -11 -16 -13 1 -27 20 -17 183 -20 185 -4 3 25 -157
52 -186 31z"/>
<path d="M11329 8056 c-44 -22 -143 -106 -160 -134 -8 -15 -29 -33 -45 -41
-64 -30 -86 -71 -37 -71 15 0 64 25 117 59 190 122 236 145 236 114 0 -51 -25
-97 -89 -166 -83 -89 -96 -123 -87 -223 4 -45 3 -81 -4 -93 -12 -23 -5 -47 17
-55 41 -16 230 67 373 163 41 28 77 46 79 40 7 -22 -23 -70 -65 -105 -25 -19
-54 -54 -65 -76 -11 -22 -33 -47 -50 -56 -19 -11 -29 -25 -29 -41 0 -22 3 -23
41 -18 65 9 114 47 128 101 7 31 20 51 41 66 37 26 54 58 69 127 13 63 2 103
-29 103 -29 0 -67 -21 -189 -102 -110 -75 -158 -98 -180 -91 -19 7 -61 102
-61 139 0 26 12 43 59 89 68 65 87 106 97 198 6 59 5 66 -14 76 -29 15 -122
14 -153 -3z"/>
<path d="M11352 7128 c-24 -26 -207 -363 -263 -486 -40 -87 -50 -142 -25 -142
22 0 32 17 146 247 59 120 118 231 131 247 42 53 132 72 202 42 26 -10 38 -25
52 -62 26 -67 23 -96 -14 -192 -18 -46 -30 -86 -27 -89 12 -12 37 9 51 44 9
21 30 47 48 58 36 23 55 73 56 150 2 100 -44 143 -179 169 -41 8 -88 19 -103
25 -40 16 -51 14 -75 -11z"/>
<path d="M11136 7112 c-15 -29 -15 -30 11 -37 32 -8 46 5 41 36 -5 35 -34 36
-52 1z"/>
<path d="M11084 6969 c-6 -8 -42 -72 -79 -144 -37 -71 -143 -269 -235 -440
-167 -309 -217 -411 -208 -421 14 -14 71 56 113 139 26 50 71 130 100 177 62
102 275 513 305 589 22 57 25 127 4 100z"/>
<path d="M11419 6868 c-20 -7 -34 -26 -58 -79 -35 -78 -38 -97 -16 -105 22 -9
40 10 54 58 7 24 22 60 33 81 24 47 21 57 -13 45z"/>
<path d="M11522 6568 c-15 -24 -48 -78 -73 -120 -24 -42 -54 -82 -66 -87 -27
-12 -63 -68 -158 -241 -38 -69 -84 -140 -102 -159 -33 -33 -34 -33 -53 -16
-11 10 -20 24 -20 32 0 41 99 223 235 433 66 101 100 170 85 170 -16 0 -146
-184 -254 -360 -171 -278 -176 -284 -215 -288 l-34 -3 40 73 c96 175 253 486
253 501 0 53 -54 -24 -225 -323 -141 -246 -152 -260 -214 -261 -25 0 -55 -4
-66 -8 -38 -15 56 -20 550 -31 605 -14 758 -12 763 11 2 11 -7 20 -25 25 -15
5 -188 9 -383 9 l-355 0 -3 33 c-3 34 61 144 248 422 74 110 130 206 130 222
0 22 -33 3 -58 -34z"/>
<path d="M11684 6508 c-70 -74 -283 -415 -299 -478 -10 -42 62 43 124 146 30
49 88 134 130 189 96 125 111 149 111 175 0 31 -13 25 -66 -32z"/>
<path d="M10916 6398 c-81 -108 -206 -360 -206 -418 0 -31 28 -24 43 13 8 17
55 111 106 207 91 172 114 230 93 230 -6 0 -22 -15 -36 -32z"/>
<path d="M11775 6400 c-9 -17 -41 -69 -72 -117 -66 -101 -135 -224 -129 -230
13 -13 53 29 128 134 87 123 142 219 132 234 -12 20 -44 8 -59 -21z"/>
<path d="M11872 6199 c-11 -41 -7 -49 20 -49 18 0 20 4 14 32 -10 49 -23 56
-34 17z"/>
<path d="M10975 4633 c-25 -32 -125 -184 -222 -338 -407 -645 -620 -1027 -584
-1050 15 -9 49 40 107 150 31 61 92 166 134 235 43 69 103 168 134 220 253
423 336 557 396 640 94 129 130 182 130 192 0 4 -11 8 -25 8 -18 0 -37 -15
-70 -57z"/>
<path d="M11689 4533 c-53 -60 -140 -182 -160 -227 -23 -53 -19 -91 6 -65 25
25 195 291 195 306 0 20 -14 16 -41 -14z"/>
<path d="M11781 4359 c-32 -14 -41 -23 -34 -30 14 -14 108 26 98 41 -8 14 -13
13 -64 -11z"/>
<path d="M11462 4073 c-7 -2 -38 -41 -70 -86 -32 -45 -90 -125 -129 -177 -38
-52 -112 -162 -163 -245 -52 -82 -148 -236 -215 -340 -256 -400 -385 -624
-385 -668 0 -14 6 -18 27 -15 23 2 35 17 71 83 102 186 396 676 528 880 79
121 186 274 238 340 145 181 179 261 98 228z"/>
<path d="M11165 3912 c-93 -67 -222 -230 -405 -512 -465 -715 -490 -757 -489
-820 0 -25 0 -25 28 8 16 18 84 132 152 254 84 149 131 223 146 229 12 4 29
22 38 39 9 17 113 176 231 355 203 306 254 372 310 397 24 11 40 45 32 68 -2
7 -20 -1 -43 -18z"/>
<path d="M11434 3648 c-60 -101 -280 -423 -375 -550 -48 -64 -93 -126 -98
-137 -16 -29 -14 -71 3 -71 21 0 48 36 226 302 90 133 190 278 222 321 66 86
101 157 92 181 -12 30 -33 16 -70 -46z"/>
<path d="M11372 3182 c-77 -81 -158 -240 -135 -263 22 -22 47 10 109 133 71
142 80 186 26 130z"/>
</g>
</svg>
